PathFileType  4	(X/Y/Z) C:\Users\antoi\Documents\MyRepositories\mobilecap\ResultsAnalysis
DataRate	CameraRate	NumFrames	NumMarkers	Units	OrigDataRate	OrigDataStartFrame	OrigNumFrames
100.0	100.0	4	51	mm	100.0	198	263
Frame#	Time	r_knee			r_shank_antsup			r_ankle			r_calc			r_5meta			r_toe			L_knee			L_shank_antsup			L_ankle			L_calc			L_5meta			L_toe			r_sh2			r_sh3			r_sh4			L_sh2			L_sh3			r_thigh1			r_thigh2			r_thigh3			r_thigh4			r_thigh5			L_thigh1			L_thigh2			L_thigh3			L_thigh4			r.ASIS			r.PSIS			L.ASIS			L.PSIS			C7			R_Shoulder			L_Shoulder			R_Sternum			L_Sternum			R_humerus			R_elbow_med			R_elbow_lat			R_forearm			R_wrist_radius			R_wrist_ulna			L_humerus			L_elbow_med			L_elbow_lat			L_forearm			L_wrist_radius			L_wrist_ulna			R_HJC			L_HJC			R_HJC_reg			L_HJC_reg			
		X1	Y1	Z1	X2	Y2	Z2	X3	Y3	Z3	X4	Y4	Z4	X5	Y5	Z5	X6	Y6	Z6	X7	Y7	Z7	X8	Y8	Z8	X9	Y9	Z9	X10	Y10	Z10	X11	Y11	Z11	X12	Y12	Z12	X13	Y13	Z13	X14	Y14	Z14	X15	Y15	Z15	X16	Y16	Z16	X17	Y17	Z17	X18	Y18	Z18	X19	Y19	Z19	X20	Y20	Z20	X21	Y21	Z21	X22	Y22	Z22	X23	Y23	Z23	X24	Y24	Z24	X25	Y25	Z25	X26	Y26	Z26	X27	Y27	Z27	X28	Y28	Z28	X29	Y29	Z29	X30	Y30	Z30	X31	Y31	Z31	X32	Y32	Z32	X33	Y33	Z33	X34	Y34	Z34	X35	Y35	Z35	X36	Y36	Z36	X37	Y37	Z37	X38	Y38	Z38	X39	Y39	Z39	X40	Y40	Z40	X41	Y41	Z41	X42	Y42	Z42	X43	Y43	Z43	X44	Y44	Z44	X45	Y45	Z45	X46	Y46	Z46	X47	Y47	Z47	X48	Y48	Z48	X49	Y49	Z49	X50	Y50	Z50	X51	Y51	Z51	

198	1.97000000	-118.97690	514.80178	-417.21737	-115.77929	431.42336	-397.84198	-304.13531	121.52009	-411.83209	-377.57191	75.11490	-459.88053	-185.77289	38.25468	-371.30837	-146.62550	56.58393	-430.82183	-130.60126	533.13021	-750.30543	-128.48996	414.20068	-774.21258	-277.47778	119.85657	-762.05994	-352.37998	78.30121	-715.67688	-118.66270	55.94265	-752.68270	-149.92706	32.58488	-815.35866	-160.18476	327.68463	-389.19957	-184.44301	462.70376	-382.69977	-238.03511	360.14051	-381.60475	-210.81217	450.96139	-778.72752	-245.70730	335.38664	-781.21715	-148.74672	833.95204	-374.44034	-105.81029	733.34949	-388.14653	-146.94708	685.87643	-366.84734	-252.04774	786.16036	-386.69787	-200.16266	681.26890	-382.94231	-152.88403	858.77261	-750.41341	-103.84694	729.35435	-756.34176	-262.75096	815.40126	-744.04856	-205.98226	689.28648	-760.49075	-152.96723	997.71416	-422.80406	-333.16870	1078.94298	-493.91429	-157.13056	1011.63179	-680.92376	-334.95529	1085.66318	-598.44257	-254.15077	1579.02378	-524.87281	-194.20354	1596.18307	-401.20176	-181.77284	1602.96859	-640.71071	-95.03957	1510.73996	-492.14385	-95.25965	1515.30414	-544.74515	-97.28609	1588.34207	-178.57990	-8.12370	1511.92915	-124.90805	-53.47938	1587.76145	-95.45061	45.53187	1685.03910	-181.40417	115.60528	1730.45961	-254.51016	122.59495	1744.07262	-212.89348	-99.30341	1607.69146	-868.54126	-28.86514	1526.23322	-953.11462	-65.55458	1601.97512	-957.39252	56.59490	1709.99312	-889.37793	112.30226	1757.25294	-829.25633	126.38480	1760.08746	-862.83423	-251.49346	938.04391	-431.86583	-252.14393	950.38886	-661.90284	-240.41573	939.73937	-461.76160	-243.32618	950.68538	-632.01257	
199	1.98000000	-134.30895	531.48747	-414.87907	-129.36916	447.27388	-395.61557	-301.48203	128.58208	-410.07303	-374.01179	85.53161	-459.11182	-185.05948	38.17644	-371.13542	-146.23174	56.59362	-430.53472	-147.00667	551.59711	-750.34225	-141.18485	432.17572	-774.93573	-274.18774	129.38641	-764.33561	-348.00006	91.78711	-716.48034	-118.50996	56.59973	-752.94730	-149.47720	32.66852	-815.21112	-168.62419	341.51815	-387.08678	-199.48044	475.31635	-380.34324	-247.94167	370.65852	-379.60662	-225.33274	464.86369	-778.47749	-254.35926	347.87710	-780.61654	-142.29822	855.02304	-375.38632	-105.65842	751.44713	-388.28029	-149.38001	707.01058	-365.38266	-248.47913	813.40545	-384.41371	-203.09189	705.45349	-380.75672	-148.27597	879.42012	-749.13424	-108.04265	747.19963	-757.16837	-260.83500	843.21059	-744.30390	-212.34135	713.80598	-760.97173	-139.37708	1024.56073	-422.76213	-320.57154	1103.79784	-491.96554	-146.02964	1038.84579	-680.87713	-323.48040	1111.13287	-596.81417	-256.28054	1605.40048	-524.01106	-200.00332	1625.11800	-403.39738	-186.82604	1631.09996	-638.59829	-95.75904	1541.54102	-491.21836	-96.44733	1545.24936	-544.60653	-107.03120	1617.57067	-178.52232	-18.90197	1541.09522	-122.46820	-65.27155	1616.50445	-93.66872	35.13555	1715.41538	-176.03110	107.70494	1762.48668	-246.65912	113.03567	1775.16373	-204.91730	-109.75662	1643.93031	-866.35454	-41.39500	1564.93431	-956.80292	-78.48708	1640.41123	-956.50071	41.94062	1748.53766	-886.12658	96.95667	1794.02314	-824.60983	110.51780	1798.28433	-858.12371	-237.23553	963.83664	-431.12142	-240.09661	976.65237	-661.11416	-226.32193	965.17562	-461.25692	-231.04142	977.08211	-631.44763	
200	1.99000000	-151.63952	552.23227	-411.29219	-144.30691	466.37648	-393.34535	-297.19666	138.17790	-407.67965	-368.51611	100.26663	-458.08361	-183.80770	38.53918	-370.73749	-145.44835	56.90031	-430.28250	-163.20615	572.75640	-749.60038	-153.53204	453.61820	-776.08866	-268.38640	142.16312	-766.05082	-341.07943	110.28354	-717.10228	-116.99127	58.21029	-753.54876	-148.24565	33.47790	-815.19981	-178.02291	358.69978	-384.49901	-215.12493	490.86810	-377.45494	-258.49366	384.06361	-377.44193	-239.47714	481.51089	-776.78655	-262.29537	362.99722	-779.89182	-135.68123	877.51583	-376.83316	-105.80445	771.37048	-388.52032	-152.03908	730.32652	-363.95404	-244.47535	842.68794	-381.32037	-206.04332	732.01048	-378.47168	-144.04229	901.44974	-748.05146	-112.47126	767.23550	-758.01510	-258.70438	872.35476	-744.49108	-218.36110	740.50845	-761.63118	-125.77929	1052.22385	-423.18591	-308.00144	1129.64823	-489.75774	-135.18850	1067.32874	-681.12522	-312.07085	1137.43212	-594.98823	-258.36716	1631.91154	-522.78792	-205.95434	1653.39726	-405.30321	-191.92845	1658.80740	-636.45581	-96.51175	1572.11708	-490.58838	-97.66288	1575.37362	-544.60445	-117.88810	1644.54223	-177.46629	-30.36734	1567.17258	-119.48297	-77.53121	1642.18813	-91.13550	24.81738	1742.19304	-169.69842	100.10005	1790.54897	-237.39685	104.05442	1802.78730	-194.93331	-121.64079	1676.74998	-865.10460	-55.28896	1600.02016	-960.18975	-92.31460	1675.08844	-956.22872	26.99403	1782.85337	-884.16537	81.67754	1826.00894	-821.09662	95.06100	1831.73604	-854.78270	-222.81638	990.42092	-430.65292	-228.29366	1004.08684	-660.54819	-212.38111	991.97276	-461.05764	-218.95749	1004.55066	-631.11469	
201	2.00000000	-169.18244	575.68864	-408.00702	-159.88995	489.21753	-390.36945	-290.09428	150.31655	-405.05659	-360.73050	119.49652	-456.97167	-182.02175	39.97915	-370.04389	-143.37898	58.07020	-429.95223	-179.26041	595.75990	-748.42893	-165.09989	478.02348	-777.27688	-259.04532	158.65664	-768.31088	-330.61523	133.82151	-717.39996	-112.52757	61.10864	-754.77902	-146.34735	36.16794	-815.29224	-187.55825	379.59812	-381.30927	-231.31611	509.36417	-374.62822	-268.77365	400.12943	-375.55059	-252.60095	500.26646	-773.65530	-268.47094	380.38541	-779.42976	-128.99406	900.97501	-378.24863	-106.18413	792.83691	-388.77560	-154.91143	755.17962	-362.92718	-240.03378	873.28751	-377.81387	-208.94922	760.35347	-376.17872	-140.21980	924.22686	-747.88796	-116.94231	788.53961	-758.46514	-256.44486	901.88283	-744.56069	-224.06260	768.06067	-761.90744	-112.68266	1080.16074	-423.98166	-295.52933	1156.19169	-487.66451	-124.83095	1096.17556	-681.64900	-300.82764	1164.11400	-593.23398	-260.15497	1657.74044	-522.08049	-211.39038	1680.13753	-407.03646	-196.91325	1685.21408	-634.58486	-98.08508	1601.15601	-490.52569	-99.41200	1603.95986	-545.20299	-129.52192	1669.30847	-175.33719	-42.43348	1590.34984	-115.90188	-90.02832	1665.12000	-87.97424	14.95899	1765.62391	-162.13447	93.05023	1814.35428	-226.58371	95.79806	1826.64067	-183.33939	-134.47696	1706.33021	-864.89778	-70.10032	1630.99711	-963.05103	-106.49025	1705.67696	-956.58542	11.93861	1812.34486	-883.50202	66.91204	1853.49416	-819.20971	80.26322	1860.75889	-853.31366	-208.81044	1017.43934	-430.43302	-217.04181	1031.97941	-660.19481	-199.04514	1019.68566	-460.95746	-207.57440	1032.43428	-630.84531	
